<?xml version="1.0" encoding="UTF-8"?>
<svg version="1.1" xmlns="http://www.w3.org/2000/svg" width="70" height="70">
<path d="M0 0 C3.05924911 1.55098947 3.05924911 1.55098947 6.375 2.19140625 C8.14690909 0.83696324 8.14690909 0.83696324 9.375 -0.80859375 C12.3074953 7.21649382 13.79477126 14.55798099 13.875 23.06640625 C13.89304688 23.84991455 13.91109375 24.63342285 13.9296875 25.44067383 C13.85363772 32.92127881 10.93420115 39.16510119 6 44.80859375 C-0.90958558 50.68838532 -9.22856906 52.69431677 -18.06640625 52.5859375 C-25.13920295 51.80179648 -31.04360074 49.02101698 -35.859375 43.7421875 C-41.92348134 35.36018927 -43.59457947 28.51313198 -42.625 18.19140625 C-40.65077696 10.42455273 -35.46365041 4.00017484 -29.0625 -0.68359375 C-27.8559375 -1.24046875 -27.8559375 -1.24046875 -26.625 -1.80859375 C-25.779375 -2.20046875 -24.93375 -2.59234375 -24.0625 -2.99609375 C-15.15102726 -5.10244185 -8.09500676 -4.22819549 0 0 Z " fill="#6EB630" transform="translate(48.625,12.80859375)"/>
<path d="M0 0 C0.66 0 1.32 0 2 0 C5.38475443 9.50954815 7.6662242 22.14412156 3.375 31.75 C0.94060599 35.6605691 -2.39732724 38.16794619 -6.80761719 39.57788086 C-9.57732178 40.11115694 -12.25894778 40.21966978 -15.078125 40.31640625 C-16.23828125 40.35830078 -17.3984375 40.40019531 -18.59375 40.44335938 C-19.8003125 40.48267578 -21.006875 40.52199219 -22.25 40.5625 C-23.47203125 40.60568359 -24.6940625 40.64886719 -25.953125 40.69335938 C-28.9686392 40.79937355 -31.98423448 40.90143936 -35 41 C-32.19584962 39.13056641 -29.67190519 38.15820192 -26.50195312 37.09619141 C-18.56441994 34.40479184 -12.76073151 31.3048006 -7 25 C-9.89061294 26.34001924 -12.18714616 27.9173193 -14.6875 29.875 C-19.15222099 32.8912998 -23.6437484 34.32007511 -28.8125 35.625 C-29.55395264 35.82593262 -30.29540527 36.02686523 -31.05932617 36.23388672 C-33.20703125 36.7265625 -33.20703125 36.7265625 -37 37 C-39.71039642 35.18731449 -40.69160197 33.92687932 -41.71484375 30.8515625 C-42.23073361 25.69266388 -42.08362553 22.41986326 -39 18 C-33.7233507 13.00106908 -28.79454748 11.8364307 -21.6875 11.125 C-12.71439256 10.06940425 -7.08728328 7.8251358 -1 1 C-0.67 0.67 -0.34 0.34 0 0 Z " fill="#FAFCF8" transform="translate(56,16)"/>
</svg>
